<svg role="img" viewBox="86 114 310 76" xmlns="http://www.w3.org/2000/svg" width="48" height="48" preserveAspectRatio="xMidYMid meet"><title>Amazon</title><path fill="#FF9900" d="m 374,142.2 c -35,25.8 -85.7,39.6 -129.4,39.6 -61.2,0 -116.4,-22.7 -158.1,-60.3 -3.3,-3 .3,-7 3.6,-4.7 45,26.2 100.7,41.9 158.2,41.9 38.8,0 81.4,-8 120.6,-24.7 5.9,-2.5 10.9,3.9 5.1,8.2"/><path fill="#FF9900" d="m 388.6,125.5 c -4.5,-5.7 -29.6,-2.7 -40.8,-1.4 -3.4.4 -4,-2.6 -.9,-4.7 20,-14.1 52.8,-10 56.7,-5.3 3.8,4.7 -1,37.6 -19.8,53.4 -2.9,2.4 -5.6,1.1 -4.4,-2.1 4.2,-10.5 13.7,-34.2 9.2,-39.9"/></svg>