<svg width="48" height="48" viewBox="0 0 48 48" fill="none" xmlns="http://www.w3.org/2000/svg">
<path fill-rule="evenodd" clip-rule="evenodd" d="M15.761 28.5795C17.0211 28.5795 19.5276 28.5086 22.9922 27.0461C27.0296 25.3418 35.0622 22.2477 40.8566 19.0698C44.9091 16.8471 46.6856 13.9074 46.6856 9.94854C46.6858 4.45414 42.3416 0 36.9828 0H14.5307C6.83349 0 0.59375 6.39771 0.59375 14.2897C0.59375 22.1817 6.436 28.5795 15.761 28.5795Z" fill="#355146"/>
<path fill-rule="evenodd" clip-rule="evenodd" d="M19.5586 38.4242C19.5586 34.5557 21.83 31.0677 25.3148 29.5847L32.3855 26.576C39.5375 23.5326 47.4094 28.9215 47.4094 36.8612C47.4094 43.0124 42.5452 47.9985 36.5458 47.9969L28.8904 47.9948C23.7361 47.9934 19.5586 43.7088 19.5586 38.4242Z" fill="#D18EE2"/>
<path d="M8.62798 30.457C4.19087 30.457 0.59375 34.1451 0.59375 38.6944V39.7614C0.59375 44.3109 4.19073 47.9989 8.62784 47.9989C13.0649 47.9989 16.6621 44.3109 16.6621 39.7614V38.6944C16.6621 34.1451 13.0651 30.457 8.62798 30.457Z" fill="#FF7759"/>
</svg>
