<svg width="48" height="48" viewBox="0 0 48 48" fill="none" xmlns="http://www.w3.org/2000/svg">
<path d="M24 4C12.95 4 4 12.95 4 24s8.95 20 20 20 20-8.95 20-20S35.05 4 24 4z" fill="#fff"/>
<path d="M24 10c-7.73 0-14 6.27-14 14s6.27 14 14 14 14-6.27 14-14-6.27-14-14-14z" fill="#111"/>
<circle cx="24" cy="24" r="6" fill="#fff"/>
<path d="M24 18a6 6 0 0 1 0 12" fill="#fff"/>
<rect x="21" y="12" width="3" height="5" rx="1.5" fill="#fff"/>
<rect x="21" y="31" width="3" height="5" rx="1.5" fill="#fff"/>
<rect x="31" y="21" width="5" height="3" rx="1.5" fill="#fff"/>
<rect x="12" y="21" width="5" height="3" rx="1.5" fill="#fff"/>
</svg>
