<svg xmlns="http://www.w3.org/2000/svg" width="48" height="48" viewBox="0 0 48 48" fill="none">
<rect width="48" height="48" fill="white"/>
<path d="M21.1573 14.1899H15.6145M21.1573 33.8364H15.6145M8 24.0214H21.1716M20.2883 38.6338H21.6401C24.2958 38.6338 26.4486 36.4519 26.4486 33.7602C26.4486 31.0687 24.2958 28.8867 21.6401 28.8867M21.6401 28.8867H10.8932M21.6401 28.8867C24.2958 28.8867 26.4486 26.7047 26.4486 24.0131C26.4486 21.6913 24.8467 19.7488 22.702 19.2588C22.3604 19.1807 22.005 19.1056 21.6401 19.1056M20.2883 9.35853H21.6401C24.2958 9.35853 26.4486 11.5405 26.4486 14.2321C26.4486 16.9237 24.2958 19.1056 21.6401 19.1056M21.6401 19.1056H10.8932M26.4085 15.5775C26.9608 15.1319 27.6259 14.8532 28.3274 14.7735C29.0289 14.6938 29.7384 14.8163 30.3743 15.127C31.672 15.7609 32.4968 17.0921 32.4968 18.5521C32.4968 17.8847 32.6702 17.229 32.9994 16.6509C33.3287 16.0729 33.8023 15.5929 34.3726 15.2592C34.9429 14.9255 35.5898 14.7498 36.2484 14.7498C36.9069 14.7498 37.5538 14.9255 38.1241 15.2592M26.3902 24.8196C26.5871 24.641 26.8021 24.4841 27.0316 24.3514L27.0298 24.3506C27.5485 24.05 28.1306 23.8793 28.7276 23.8527C29.3246 23.8262 29.9192 23.9446 30.4619 24.198C31.0046 24.4515 31.4798 24.8326 31.8478 25.3098C32.2157 25.787 32.4659 26.3464 32.5775 26.9414C32.9284 28.628 34.3509 29.854 36.031 29.9521L36.0303 29.9565C36.3808 29.9774 36.7325 29.9482 37.075 29.87M24.9541 37.9127C24.8854 37.775 24.825 37.6332 24.7732 37.4881M24.9664 37.9365C25.8436 39.6645 27.8651 40.4441 29.6536 39.7441C31.4422 39.0441 32.4222 37.0898 31.926 35.2129C32.7954 36.5618 34.4092 37.2089 35.9538 36.828C37.4984 36.447 38.6384 35.1208 38.7991 33.5178C38.9454 32.0561 38.2478 30.6397 37.0072 29.8798C38.8457 29.4949 40.1205 27.7918 39.9909 25.8936C39.8544 23.9005 38.2195 22.3545 36.2484 22.3545C37.7657 22.3545 39.1337 21.4281 39.7143 20.0072C40.295 18.5864 39.974 16.9509 38.9011 15.8634C38.3423 15.3027 37.6239 14.9341 36.8472 14.8097C36.6178 13.6169 36.1365 12.4886 35.4362 11.5022C34.7359 10.5157 33.8333 9.69464 32.7903 9.09522C31.4386 8.31856 29.8991 7.94166 28.3466 8.00732C26.7941 8.07299 25.2909 8.57859 24.0077 9.4667C23.8882 9.55279 23.7709 9.64208 23.6561 9.73448" stroke="#27272A" stroke-width="2.26667" stroke-linecap="round" stroke-linejoin="round"/>
</svg>