<svg width="48" height="48" viewBox="0 0 48 48" fill="none" xmlns="http://www.w3.org/2000/svg">
<rect width="48" height="48" fill="black"/>
<path fill-rule="evenodd" clip-rule="evenodd" d="M37.8597 9.7397L37.9949 9.87494L37.9987 9.87107C40.5995 12.5088 39.8537 17.8088 36.0825 23.8172L43.5 31.3131L43.1813 31.9404C41.9347 34.3974 40.2464 36.5986 38.2027 38.4317C35.5109 40.8593 32.262 42.5699 28.7504 43.4084L28.6229 43.4393L28.4406 43.4831L28.3092 43.5128L28.0198 43.5772C27.9401 43.594 27.8602 43.6099 27.7802 43.6248L27.6004 43.6596C27.4092 43.6982 27.209 43.7343 27.0139 43.7678L26.8507 43.7923L26.7271 43.8077C26.5499 43.8322 26.3777 43.8541 26.2018 43.8747C23.2781 44.2074 20.3177 43.8757 17.5373 42.9038C14.7568 41.932 12.2265 40.3447 10.1313 38.2579L10.009 38.1381C7.40301 35.5003 8.14119 30.1965 11.9175 24.1842L4.5 16.6883L4.81873 16.061C6.06314 13.6031 7.75321 11.4029 9.80114 9.57484C11.8939 7.69393 14.3245 6.23621 16.9611 5.28076C17.5731 5.05794 18.2131 4.86346 18.8416 4.6986C19.3597 4.55876 19.8833 4.44059 20.4111 4.34441C20.5896 4.30834 20.791 4.27099 20.9861 4.23751C24.0286 3.7583 27.14 4.00644 30.0704 4.962C33.0008 5.91756 35.6687 7.55392 37.8597 9.7397ZM35.3519 10.0617H35.3443L35.3519 10.0656C32.8314 9.27732 28.832 10.5511 24.6043 13.3653C27.821 12.4599 30.9318 12.9287 32.9423 14.9611C34.8471 16.8892 35.3685 19.8155 34.6469 22.8898C34.6138 23.0547 34.5704 23.2196 34.5194 23.3883C37.9706 18.1141 39.0747 13.1799 36.8895 10.9761C36.8529 10.9371 36.8147 10.8997 36.7748 10.8641L36.7582 10.8486L36.734 10.8267C36.7092 10.8085 36.685 10.7896 36.6613 10.7701C36.6294 10.7443 36.5975 10.7186 36.5631 10.6954L36.5096 10.6567C36.1608 10.392 35.7691 10.1906 35.3519 10.0617ZM33.6219 21.9174C33.1769 24.599 31.7095 27.3089 29.4847 29.5538C27.2664 31.8 24.5788 33.2837 21.9206 33.7371C19.4332 34.1621 17.2875 33.6083 15.8813 32.1915C14.4788 30.7735 13.9306 28.6136 14.3514 26.0879C14.7963 23.4089 16.2599 20.6977 18.4745 18.4554C18.4745 18.4554 18.4783 18.4554 18.4872 18.4425L18.4949 18.4296C20.7171 16.1989 23.3944 14.719 26.0463 14.2708C28.5336 13.8457 30.6742 14.397 32.0856 15.8163C33.488 17.2331 34.0362 19.3969 33.6155 21.9187H33.6231L33.6219 21.9174ZM11.0812 11.0212C9.38824 12.5349 7.96251 14.3284 6.86499 16.3251L6.85224 16.3289L13.2881 22.8151C13.8133 22.0694 14.3718 21.3314 14.971 20.6024C15.1801 20.3513 15.3955 20.0911 15.6161 19.8322L15.7002 19.7356L16.0062 19.3904C16.0151 19.3827 16.0241 19.366 16.0241 19.366L16.0802 19.3016L16.1095 19.2668C16.1626 19.2079 16.2153 19.1487 16.2676 19.0891C16.3492 18.9976 16.4308 18.9036 16.5175 18.8147C16.5175 18.8057 16.5302 18.7928 16.5302 18.7928L16.6679 18.6408C16.7017 18.6076 16.7345 18.5732 16.7661 18.5378C16.7699 18.5301 16.7737 18.5301 16.7737 18.5301C16.7826 18.5249 16.7826 18.5172 16.7826 18.5172C16.7877 18.5108 16.7954 18.503 16.8005 18.494C16.806 18.4863 16.8119 18.479 16.8183 18.4721C16.8341 18.4603 16.8482 18.4464 16.8604 18.4309C16.8682 18.4221 16.8763 18.4135 16.8846 18.4051C16.9369 18.3523 16.9994 18.2905 17.0555 18.2287C17.0835 18.1913 17.1205 18.1553 17.1575 18.1179L17.2097 18.0638C17.2187 18.0509 17.2429 18.0265 17.2429 18.0265L17.3411 17.9286L17.5323 17.738L17.596 17.6697L17.6674 17.5937C19.0461 16.1974 20.5188 14.899 22.0749 13.7079L22.2788 13.5572H22.2801V13.5559L22.2827 13.5547L22.4867 13.4027C22.7161 13.2301 22.9431 13.0614 23.1751 12.8965C23.4212 12.7278 23.6698 12.5578 23.9146 12.3942C27.2574 10.1428 30.5314 8.79176 33.2037 8.52386C29.6287 6.34495 25.4088 5.50602 21.2831 6.154C21.1046 6.18234 20.9338 6.21196 20.7502 6.24931C20.6342 6.26992 20.5335 6.29053 20.4315 6.31113L20.3703 6.32401C19.4334 6.51971 18.5111 6.78094 17.6101 7.10581C15.2056 7.97567 12.9882 9.305 11.0812 11.0212ZM11.4356 37.3061C11.7913 37.5817 12.1993 37.7878 12.6557 37.932H12.6468C15.1839 38.7151 19.168 37.4374 23.3804 34.6309C20.1676 35.5325 17.0631 35.0637 15.0526 33.0313C13.1568 31.1122 12.6353 28.1769 13.3531 25.1026C13.3901 24.9377 13.4296 24.7728 13.4793 24.6041C10.0294 29.8796 8.92782 34.8125 11.1105 37.0175C11.1589 37.0665 11.2125 37.1154 11.2686 37.1657C11.3221 37.2146 11.3757 37.2597 11.4356 37.3061ZM41.1312 31.6776V31.6802C40.0322 33.674 38.6076 35.4659 36.9176 36.9802C34.3884 39.251 31.3299 40.8358 28.0288 41.586L27.988 41.5963L27.8783 41.622C27.7543 41.6555 27.6288 41.683 27.5022 41.7045C27.4194 41.7225 27.3365 41.7392 27.2498 41.7521C27.0722 41.7872 26.8936 41.8173 26.7143 41.8423L26.5652 41.868L26.3956 41.8899C26.2592 41.908 26.1215 41.9273 25.9774 41.9414C22.0848 42.3847 18.1561 41.5187 14.8001 39.4776C17.3729 39.2213 20.5054 37.9526 23.7182 35.8545L23.9018 35.7334L24.0854 35.6111L24.3353 35.4411H24.3366L24.8198 35.1088C25.0518 34.9439 25.2839 34.7752 25.5082 34.6026C25.651 34.4996 25.7862 34.4004 25.9239 34.2974C27.4787 33.1039 28.9517 31.8052 30.3326 30.4103C30.3657 30.3768 30.3963 30.342 30.4256 30.3098L30.4639 30.266C30.5327 30.2016 30.5939 30.1385 30.6551 30.0767L30.752 29.9788C30.752 29.9788 30.7775 29.953 30.7813 29.9402C30.7941 29.9299 30.8068 29.917 30.8183 29.9041C30.8233 29.8984 30.8284 29.8928 30.8336 29.8874L30.9445 29.7766L31.0299 29.6864C31.058 29.6594 31.0873 29.6298 31.1154 29.5989C31.1233 29.5906 31.131 29.582 31.1383 29.5731C31.1506 29.558 31.1647 29.5446 31.1804 29.5332C31.1873 29.5259 31.1937 29.5182 31.1995 29.51C31.205 29.5023 31.2109 29.495 31.2174 29.4881C31.2174 29.4881 31.2301 29.4752 31.2378 29.4713C31.2495 29.4592 31.261 29.4467 31.2722 29.434L31.3066 29.3966L31.3398 29.3644C31.3028 29.4018 31.2709 29.4417 31.2378 29.4829L31.3168 29.3992L31.3181 29.3966C31.3742 29.3374 31.4277 29.2794 31.4825 29.2241C31.4825 29.2241 31.4825 29.2112 31.4953 29.2112C31.5705 29.13 31.6419 29.0489 31.7133 28.9665L31.8574 28.8042C31.8754 28.7906 31.8906 28.7735 31.902 28.754L31.9836 28.6548L32.004 28.6303C32.1047 28.5234 32.1991 28.4139 32.2959 28.3045L32.3954 28.1885C32.5548 28.0018 32.7141 27.8099 32.8722 27.6205L33.0635 27.39L33.1234 27.3153C33.1999 27.2187 33.2751 27.1234 33.3503 27.0319C33.4141 26.9547 33.4765 26.8748 33.5377 26.795C33.9453 26.2734 34.3407 25.7422 34.7234 25.2017L41.1312 31.6776ZM41.1312 31.6776C41.1312 31.6738 41.1337 31.6699 41.1388 31.6673V31.6879L41.1312 31.6802H41.1337L41.1312 31.6776Z" fill="white"/>
</svg>
