<svg width="48" height="48" viewBox="0 0 48 48" fill="none" xmlns="http://www.w3.org/2000/svg">
<g style="mix-blend-mode:overlay">
<path d="M3 11.998L24 0V48L3 35.9993V11.998Z" fill="black"/>
<path d="M24 48L3 35.9993L24 23.9987L45 35.9994L24 48Z" fill="url(#paint0_linear_3082_1106)"/>
<path d="M24 48L3 35.9993L24 23.9987L45 35.9994L24 48Z" fill="url(#paint1_linear_3082_1106)"/>
<path d="M3 11.998L24 0V48L3 35.9993V11.998Z" fill="url(#paint2_linear_3082_1106)" style="mix-blend-mode:screen"/>
<path d="M24 48L3 35.9993L24 23.9987L45 35.9994L24 48Z" fill="url(#paint3_linear_3082_1106)" style="mix-blend-mode:overlay"/>
<path d="M3 11.998L24 0V48L3 35.9993V11.998Z" fill="url(#paint4_linear_3082_1106)" style="mix-blend-mode:overlay"/>
</g>
<defs>
<linearGradient id="paint0_linear_3082_1106" x1="3" y1="24.0001" x2="45" y2="24.0001" gradientUnits="userSpaceOnUse">
<stop stop-color="#0000AA"/>
<stop offset="1" stop-color="#A78DFF"/>
</linearGradient>
<linearGradient id="paint1_linear_3082_1106" x1="3" y1="24.0001" x2="45" y2="24.0001" gradientUnits="userSpaceOnUse">
<stop stop-color="#0000AA"/>
<stop offset="1" stop-color="#A78DFF"/>
</linearGradient>
<linearGradient id="paint2_linear_3082_1106" x1="50.477" y1="45.2842" x2="40.0141" y2="1.25934" gradientUnits="userSpaceOnUse">
<stop stop-color="#004EFF"/>
<stop offset="1" stop-color="#00FFFF"/>
</linearGradient>
<linearGradient id="paint3_linear_3082_1106" x1="3" y1="24.0001" x2="45" y2="24.0001" gradientUnits="userSpaceOnUse">
<stop stop-color="#0000AA"/>
<stop offset="1" stop-color="#A78DFF"/>
</linearGradient>
<linearGradient id="paint4_linear_3082_1106" x1="26.7385" y1="45.2842" x2="8.70507" y2="7.34434" gradientUnits="userSpaceOnUse">
<stop stop-color="#004EFF"/>
<stop offset="1" stop-color="#00FFFF"/>
</linearGradient>
</defs>
</svg>
