<svg width="48" height="48" viewBox="0 0 48 48" fill="none" xmlns="http://www.w3.org/2000/svg">
<rect width="48" height="48" fill="#F1F2F2"/>
<path d="M32.5318 39.9804C28.6549 40.335 25.4133 35.7919 22.9283 33.4877C21.6719 42.5413 7.99066 41.683 8 32.4988C8.00468 28.6413 8 19.2146 8 15.4784C8 14.1351 8.36901 12.7824 9.06031 11.6349C10.3728 9.41 12.9092 7.97336 15.4922 8.00135C19.3831 8.00601 28.753 7.99668 32.5318 8.00135C41.7242 8.00135 42.5977 21.6774 33.5127 22.9088L37.8241 27.214C42.5604 31.6686 39.0057 40.1763 32.5318 39.9804ZM30.4439 34.593C33.1157 37.3451 37.3802 33.0819 34.6289 30.4138L27.1555 22.9508H22.9751C22.9751 23.3566 22.9751 26.8362 22.9751 27.1301L29.435 33.581L30.4439 34.593ZM12.5262 32.5035C12.4654 36.3282 18.5049 36.3424 18.4442 32.5035V15.4784C18.4956 13.5707 16.4778 12.0547 14.6561 12.6424C14.5767 12.6658 14.502 12.6891 14.4319 12.7171C13.2875 13.1415 12.4935 14.3123 12.5262 15.5344V32.5035ZM32.5318 18.431C36.3712 18.4916 36.3667 12.4605 32.5318 12.5211H22.3818C23.1525 14.1444 22.9564 16.6725 22.9704 18.431C23.5215 18.431 32.2609 18.431 32.5318 18.431Z" fill="black"/>
</svg>
