<svg role="img" viewBox="0 0 56 66" xmlns="http://www.w3.org/2000/svg" fill="#5534FF" width="48" height="48" preserveAspectRatio="xMidYMid meet"><title>Upstage</title><path d="M7.84009 65.021H0.900635L1.88306 61.5063H8.84888L7.84009 65.021ZM17.4241 58.8696H2.63989L3.62231 55.355H18.4329L17.4241 58.8696ZM26.26 52.7183H4.37915L5.36157 49.2026H27.2688L26.26 52.7183ZM53.2014 46.5669H6.11841L7.10083 43.0513H54.2102L53.2014 46.5669ZM50.4192 40.4155H7.85767L8.84106 36.8999H51.428L50.4192 40.4155ZM47.3918 30.7485L46.3831 34.2632H6.44946L7.43188 30.7485H47.3918ZM48.0012 28.1118H5.41431L6.4231 24.5972H48.9924L48.0012 28.1118ZM49.7405 21.9604H2.63989L3.64868 18.4458H50.7317L49.7405 21.9604ZM51.4797 15.8091H29.5823L30.5911 12.2935H52.4709L51.4797 15.8091ZM53.219 9.65771H38.4172L39.426 6.14209H54.2102L53.219 9.65771ZM54.9583 3.50635H48.0012L49.0012 -0.00927734H55.9495L54.9583 3.50635Z"/></svg>